trial_4_ID.mot
nRows=10
nColumns=42

name trial_4_ID.mot
datacolumns 42
datarows 10
range 6.6000000000 6.6900000000
endheader
time	pelvis_tilt_moment	pelvis_list_moment	pelvis_rotation_moment	pelvis_tx_force	pelvis_ty_force	pelvis_tz_force	hip_flexion_r_moment	hip_adduction_r_moment	hip_rotation_r_moment	knee_angle_r_moment	knee_vv_r_moment	knee_rot_r_moment	ankle_angle_r_moment	subtalar_angle_r_moment	mtp_angle_r_moment	hip_flexion_l_moment	hip_adduction_l_moment	hip_rotation_l_moment	knee_angle_l_moment	knee_vv_l_moment	knee_rot_l_moment	ankle_angle_l_moment	subtalar_angle_l_moment	mtp_angle_l_moment	lumbar_extension_moment	lumbar_bending_moment	lumbar_rotation_moment	arm_flex_r_moment	arm_add_r_moment	arm_rot_r_moment	elbow_flex_r_moment	pro_sup_r_moment	wrist_flex_r_moment	wrist_dev_r_moment	arm_flex_l_moment	arm_add_l_moment	arm_rot_l_moment	elbow_flex_l_moment	pro_sup_l_moment	wrist_flex_l_moment	wrist_dev_l_moment
        6.6000000000	      -10.6189207200	        9.4334887100	       -2.3394246800	      -28.9084309400	      -14.3860315500	      -11.6173444900	       -9.1565292500	        6.3820298200	       -1.3388988600	       -5.4793814800	        4.7326430700	       -1.0253731300	        5.8276023500	       -0.3056972000	        0.0212940000	        5.7166274700	      -46.8496307600	       -1.3853253900	      -20.5650147200	       19.3784956000	        3.5196350100	      -67.5846935700	       14.7786410600	        0.0262142100	       15.4032590100	        2.1637076700	        4.4202021800	        0.5938779000	       -1.7252824000	       -0.0428061800	       -0.1292337000	       -0.0168942800	       -0.0499210600	       -0.0219946000	       -1.0165088700	       -1.6659441800	        0.0601734900	       -0.1432044100	        0.0120910200	        0.0260564300	        0.0593837100	
        6.6100000000	      -10.5957554200	        8.0234914900	       -2.3666974100	      -28.1390691900	      -10.5534030200	       -9.5955039800	       -8.6578013000	        5.7346954900	       -1.3654115700	       -4.0544922300	        4.7079209600	       -1.0388467300	        6.4651814800	       -0.2407089700	        0.0273400500	        5.5626595000	      -44.8771297300	       -1.0578726200	      -20.3904419300	       18.4849745800	        3.2337530300	      -67.8965977500	       14.6454988200	        0.0247026700	       16.0877771200	        1.5327118300	        4.1106551400	        0.5099347100	       -1.6569106400	       -0.0393457500	       -0.1324304000	       -0.0152677400	       -0.0461850500	       -0.0203203300	       -1.0516181200	       -1.6465917700	        0.0831883600	       -0.1307619100	        0.0143523500	        0.0312781400	        0.0594302200	
        6.6200000000	      -10.6209011400	        6.6828983500	       -2.5826200600	      -26.7755831900	       -7.1561518500	       -7.3460441200	       -8.5599422800	        4.5985687500	       -1.4075619600	       -2.6092067100	        4.4151103700	       -1.0694850800	        6.8114178200	       -0.1060094500	        0.0335009300	        5.5084880500	      -42.6195635000	       -0.7012188200	      -20.0029712600	       17.4214971800	        2.9115191200	      -67.7385503000	       14.3935793100	        0.0225799800	       16.9065541300	        0.9243810800	        3.7656411300	        0.4270406500	       -1.5924047000	       -0.0354378700	       -0.1343863500	       -0.0136137900	       -0.0424581300	       -0.0188097400	       -1.0883872900	       -1.6226014100	        0.1050336300	       -0.1154292000	        0.0166686000	        0.0364371300	        0.0584727300	
        6.6300000000	      -10.4239279300	        5.6730643600	       -2.9153189500	      -24.8263213300	       -4.4693838000	       -5.2416701900	       -8.8056799400	        3.2113832000	       -1.4619316900	       -1.1055639300	        3.9310590800	       -1.1223388100	        6.8169603300	        0.0984876300	        0.0394134700	        5.6688207200	      -39.9903178500	       -0.3097688500	      -19.2812919100	       16.1651904100	        2.5434623200	      -67.0032476300	       14.0023701600	        0.0199640200	       17.8692143700	        0.3710477600	        3.4037840700	        0.3484237700	       -1.5351937400	       -0.0319959800	       -0.1346831300	       -0.0121127000	       -0.0388314700	       -0.0175863500	       -1.1204014900	       -1.6030508400	        0.1220030000	       -0.0987393000	        0.0188090500	        0.0407289500	        0.0562859000	
        6.6400000000	       -9.7678580400	        5.0485222100	       -3.2483317100	      -22.3285659800	       -2.6263696200	       -3.4204963000	       -9.2755954600	        1.7348173700	       -1.5252539500	        0.5209098600	        3.3104775600	       -1.2045542300	        6.4881976900	        0.3627690000	        0.0447072100	        6.1341265700	      -36.8503532700	        0.1138720500	      -18.1086036100	       14.6816899100	        2.1219751600	      -65.5697270900	       13.4516819700	        0.0171564800	       18.9282385200	       -0.1161521000	        3.0491723700	        0.2771733600	       -1.4896119900	       -0.0299448600	       -0.1336177800	       -0.0109289000	       -0.0354304300	       -0.0166937400	       -1.1404841600	       -1.5977347400	        0.1306376700	       -0.0827530200	        0.0204969900	        0.0433030200	        0.0527419800	
        6.6500000000	       -8.4724246800	        4.6194453500	       -3.4279231800	      -19.2417813500	       -1.4608602100	       -1.7818260700	       -9.7622030200	        0.2083641900	       -1.5891990300	        2.3624584500	        2.5687196900	       -1.3238885800	        5.8802313300	        0.6701719100	        0.0490439700	        6.9447053300	      -33.0356219600	        0.5533938500	      -16.4000842000	       12.9311309400	        1.6445945400	      -63.3160412800	       12.7259480000	        0.0146689300	       19.9702670500	       -0.5573153200	        2.7249078900	        0.2151421100	       -1.4597156200	       -0.0300540000	       -0.1322248200	       -0.0101738700	       -0.0323666400	       -0.0160707000	       -1.1415884100	       -1.6150548800	        0.1285453500	       -0.0695624100	        0.0214503500	        0.0434417700	        0.0478280700	
        6.6600000000	       -6.6239011900	        4.0327606700	       -3.3074922400	      -15.6397574800	       -0.5224206100	       -0.0914370500	      -10.0941163400	       -1.4408119200	       -1.6363578900	        4.4898244300	        1.6822680500	       -1.4858223400	        5.0772053600	        1.0023719400	        0.0521572100	        8.0142403700	      -28.4150588500	        0.9744996800	      -14.1547518500	       10.8852810300	        1.1177971000	      -60.1386136400	       11.8192522000	        0.0132068300	       20.8327680600	       -0.9977741600	        2.4465637000	        0.1622960900	       -1.4476493200	       -0.0327860900	       -0.1318985600	       -0.0098820800	       -0.0296811200	       -0.0155712300	       -1.1172727700	       -1.6597683500	        0.1149682500	       -0.0605719600	        0.0214251900	        0.0407254000	        0.0416265700	
        6.6700000000	       -4.5976975100	        2.9404755600	       -2.8006772600	      -11.7395575000	        0.7934110100	        1.8535014800	      -10.2192753600	       -3.3485978100	       -1.6411348300	        6.9059671300	        0.6050905600	       -1.6909159800	        4.1697734300	        1.3436947300	        0.0538740400	        9.1475642600	      -22.9683981200	        1.3249375300	      -11.4728156900	        8.5533353100	        0.5601920500	      -55.9775505700	       10.7402143000	        0.0135620200	       21.3452798500	       -1.4851943200	        2.2191122600	        0.1172045700	       -1.4523472600	       -0.0382057400	       -0.1336835900	       -0.0100124700	       -0.0273166100	       -0.0150348200	       -1.0618029200	       -1.7314662600	        0.0908643700	       -0.0558439700	        0.0202473400	        0.0351199900	        0.0342673600	
        6.6800000000	       -2.8501464300	        1.1860531100	       -1.9264820300	       -7.7188198600	        3.0596362100	        4.0732234200	      -10.1705735500	       -5.6532686600	       -1.5754764300	        9.5486724300	       -0.7074556300	       -1.9332494500	        3.2366366700	        1.6834495000	        0.0541345200	       10.1322965900	      -16.8631807700	        1.5427087400	       -8.5298259300	        6.0093042600	        0.0033199100	      -50.8427676600	        9.5152295200	        0.0164289900	       21.3794746800	       -2.0393271400	        2.0392138600	        0.0784113100	       -1.4692670300	       -0.0459735700	       -0.1375849100	       -0.0104721000	       -0.0251366500	       -0.0143732900	       -0.9706330700	       -1.8244050900	        0.0585433500	       -0.0539521800	        0.0178300700	        0.0269664400	        0.0258928700	
        6.6900000000	       -1.8741832700	       -1.0749726300	       -0.8223079700	       -3.8202032800	        6.5990512500	        6.3462553000	      -10.0283764600	       -8.4407121500	       -1.4168662500	       12.3015780200	       -2.2763960500	       -2.2002084700	        2.3330608100	        2.0166672600	        0.0530002800	       10.6919740600	      -10.4851837500	        1.5735019000	       -5.5934080300	        3.4067423300	       -0.5108869100	      -44.8364711600	        8.1884355000	        0.0221942800	       20.8850103400	       -2.6302057700	        1.9014584000	        0.0455807400	       -1.4912989600	       -0.0554145000	       -0.1423281800	       -0.0111445000	       -0.0229740500	       -0.0136190800	       -0.8419800500	       -1.9287480100	        0.0211014600	       -0.0526073100	        0.0141869200	        0.0168975700	        0.0166765400	
